<?xml version="1.0" encoding="iso-8859-1"?>
<!-- Generator: Adobe Illustrator 16.0.0, SVG Export Plug-In . SVG Version: 6.00 Build 0)  -->
<!DOCTYPE svg PUBLIC "-//W3C//DTD SVG 1.1//EN" "http://www.w3.org/Graphics/SVG/1.1/DTD/svg11.dtd">
<svg version="1.1" id="Layer_1" xmlns="http://www.w3.org/2000/svg" xmlns:xlink="http://www.w3.org/1999/xlink" x="0px" y="0px"
	 width="994px" height="212px" viewBox="0 0 994 212" style="enable-background:new 0 0 994 212;" xml:space="preserve">
<g>
	<g>
		<path style="fill:#008DA8;stroke:#008DA8;" d="M49.343,141.962l-21.41,52.562H17.551L84.535,29.403l66.769,165.122h-10.391
			l-21.411-52.562H49.343z M53.157,132.417h62.531"/>
	</g>
	<polyline style="fill:#008DA8;stroke:#008DA8;" points="141.971,192.017 207.938,29.403 274.707,194.524 264.315,194.524 
		207.938,55.257 151.335,194.524 140.954,194.524 	"/>
</g>
<g>
	<path style="fill:#414042;" d="M311.978,74.498l-8.099,19.888h-3.93l25.341-62.469l25.26,62.469h-3.93l-8.099-19.888H311.978z
		 M325.29,41.699L313.42,70.89h23.657L325.29,41.699z"/>
	<path style="fill:#414042;" d="M369.303,90.776h15.396v3.609h-19.245V33.921h3.849V90.776z"/>
	<path style="fill:#414042;" d="M405.623,74.498l-8.099,19.888h-3.93l25.34-62.469l25.26,62.469h-3.93l-8.099-19.888H405.623z
		 M418.934,41.699L407.065,70.89h23.657L418.934,41.699z"/>
	<path style="fill:#414042;" d="M513.708,96.39l-50.761-53.968v51.964h-3.849V33.119l50.761,53.567V33.921h3.849V96.39z"/>
	<path style="fill:#414042;" d="M618.258,44.346h-0.16L597.006,96.39l-21.01-52.044h-0.16l-10.345,50.04h-3.689l12.991-62.469
		l22.213,55.01l22.293-55.01l12.99,62.469h-3.688L618.258,44.346z"/>
	<path style="fill:#414042;" d="M706.612,64.153c0,17.001-14.354,31.034-31.354,31.034c-17.001,0-31.354-14.033-31.354-31.034
		c0-17,14.272-31.034,31.354-31.034C692.258,33.119,706.612,47.153,706.612,64.153z M647.752,64.153
		c0,14.916,12.43,27.426,27.506,27.426c14.996,0,27.505-12.59,27.505-27.426c0-14.916-12.509-27.424-27.505-27.424
		C660.182,36.729,647.752,49.237,647.752,64.153z"/>
	<path style="fill:#414042;" d="M778.609,96.39l-50.762-53.968v51.964h-3.85V33.119l50.761,53.567V33.921h3.851V96.39z"/>
	<path style="fill:#414042;" d="M856.297,65.277c0.16,7.617-0.962,14.272-6.334,20.126c-5.773,6.256-14.436,9.783-22.935,9.783
		c-16.762,0-31.034-14.113-31.034-30.793c0-17.32,14.193-31.274,31.516-31.274c10.985,0,19.887,5.453,26.222,14.114l-3.128,2.486
		c-5.373-8.02-13.551-12.991-23.334-12.991c-14.756,0-27.427,12.911-27.427,27.424c0,14.916,12.351,27.426,27.427,27.426
		c6.494,0,12.829-2.646,17.801-6.656c5.212-4.411,7.139-9.462,7.379-16.039h-21.653v-3.607H856.297z"/>
	<path style="fill:#414042;" d="M877.534,37.53v21.972h24.378v3.609h-24.378v27.666h25.021v3.609h-28.87V33.921h28.87v3.609H877.534
		z"/>
	<path style="fill:#414042;" d="M952.264,94.386h-4.411l-19.727-28.628h-1.924v28.628h-3.851V33.921h7.54
		c4.892,0,9.703,0.08,13.791,3.048c4.33,3.046,6.096,7.858,6.096,12.99c0,10.505-7.298,15.958-17.322,15.798L952.264,94.386z
		 M931.094,62.148c3.77,0,7.537-0.16,10.585-2.807c2.888-2.325,4.25-5.934,4.25-9.542c0-4.491-2.086-8.981-6.415-10.906
		c-3.207-1.523-7.298-1.363-10.825-1.363h-2.486v24.618H931.094z"/>
	<path style="fill:#414042;" d="M321.36,182.097l22.613-55.012l22.614,55.012l16.761-51.965h3.849l-20.369,62.471l-23.095-55.895
		l-23.015,55.895l-20.208-62.471h3.85L321.36,182.097z"/>
	<path style="fill:#414042;" d="M406.506,133.741v21.973h24.378v3.609h-24.378v27.664h25.02v3.609h-28.869v-60.465h28.869v3.609
		H406.506z"/>
	<path style="fill:#414042;" d="M451.322,190.597v-60.465h12.108c4.571,0,8.901,0.322,12.51,3.529
		c3.689,3.209,5.052,7.699,5.052,12.512c0,5.533-2.165,9.621-6.977,12.348c7.458,1.523,12.51,7.537,12.51,15.234
		c0,4.893-1.844,9.303-5.613,12.512c-4.25,3.609-8.74,4.33-14.113,4.33H451.322z M455.171,157.56h6.657
		c4.089,0,7.377,0.238,10.825-2.246c3.448-2.484,4.491-5.533,4.491-9.703c0-3.93-1.524-7.779-4.972-9.943
		c-3.048-1.926-6.817-1.926-10.344-1.926h-6.657V157.56z M455.171,186.987h9.222c4.25,0,8.661,0.162,12.349-2.324
		c3.689-2.484,5.935-6.254,5.935-10.746c0-4.41-2.165-8.82-6.255-10.824c-3.688-1.846-8.74-1.924-12.75-1.924h-8.5V186.987z"/>
	<path style="fill:#414042;" d="M537.511,130.132h10.905c8.821,0,15.798,1.443,22.454,7.619c6.335,5.936,9.623,14.033,9.623,22.693
		c0,8.342-3.208,16.279-9.302,22.133c-6.656,6.416-13.794,8.02-22.775,8.02h-10.905V130.132z M548.337,186.987
		c7.938,0,14.514-1.604,20.288-7.297c5.133-5.131,8.02-12.027,8.02-19.246c0-7.699-3.048-14.916-8.742-20.127
		c-5.773-5.213-12.027-6.576-19.565-6.576h-6.978v53.246H548.337z"/>
	<path style="fill:#414042;" d="M601.652,133.741v21.973h24.379v3.609h-24.379v27.664h25.02v3.609h-28.868v-60.465h28.868v3.609
		H601.652z"/>
	<path style="fill:#414042;" d="M662.188,181.776h0.16l17.884-51.645h3.85l-21.974,62.471l-21.73-62.471h3.85L662.188,181.776z"/>
	<path style="fill:#414042;" d="M702.836,133.741v21.973h24.378v3.609h-24.378v27.664h25.02v3.609h-28.87v-60.465h28.87v3.609
		H702.836z"/>
	<path style="fill:#414042;" d="M751.501,186.987h15.397v3.609h-19.247v-60.465h3.85V186.987z"/>
	<path style="fill:#414042;" d="M840.988,160.364c0,17-14.354,31.035-31.355,31.035s-31.354-14.035-31.354-31.035
		s14.271-31.033,31.354-31.033C826.634,129.331,840.988,143.364,840.988,160.364z M782.127,160.364
		c0,14.916,12.43,27.426,27.506,27.426c14.996,0,27.506-12.59,27.506-27.426c0-14.914-12.51-27.424-27.506-27.424
		C794.557,132.94,782.127,145.45,782.127,160.364z"/>
	<path style="fill:#414042;" d="M862.224,190.597h-3.85v-60.465h10.665c4.73,0,9.303,0.322,13.071,3.529
		c3.689,3.127,5.453,7.699,5.453,12.43c0,4.33-1.683,9.141-5.052,11.949c-3.689,3.207-8.742,3.848-13.473,3.848h-6.815V190.597z
		 M869.199,158.278c3.93,0,7.459-0.48,10.585-3.287c2.647-2.406,3.931-5.531,3.931-9.061c0-3.77-1.523-7.537-4.572-9.783
		c-3.046-2.326-6.896-2.406-10.584-2.406h-6.335v24.537H869.199z"/>
	<path style="fill:#414042;" d="M908.083,133.741v21.973h24.379v3.609h-24.379v27.664h25.021v3.609h-28.869v-60.465h28.869v3.609
		H908.083z"/>
	<path style="fill:#414042;" d="M982.812,190.597h-4.41l-19.728-28.627h-1.924v28.627h-3.85v-60.465h7.539
		c4.892,0,9.703,0.08,13.791,3.049c4.331,3.047,6.096,7.859,6.096,12.992c0,10.502-7.298,15.957-17.322,15.797L982.812,190.597z
		 M961.643,158.36c3.77,0,7.537-0.16,10.586-2.807c2.887-2.328,4.25-5.936,4.25-9.541c0-4.492-2.087-8.982-6.416-10.908
		c-3.207-1.523-7.298-1.363-10.827-1.363h-2.484v24.619H961.643z"/>
</g>
</svg>
